HIERARCHY
ROOT Hips
{
	OFFSET 0.000000 0.000000 0.000000
	CHANNELS 6 Xposition Yposition Zposition Xrotation Yrotation Zrotation
	JOINT LeftUpLeg_virtual
	{
		OFFSET 0.000000 0.000000 0.000000
		CHANNELS 3 Xrotation Yrotation Zrotation
		JOINT LeftUpLeg
		{
			OFFSET 13.026900 -6.336304 -1.092800
			CHANNELS 3 Xrotation Yrotation Zrotation
			JOINT LeftLeg
			{
				OFFSET 0.524474 -46.096886 9.782700
				CHANNELS 3 Xrotation Yrotation Zrotation
				JOINT LeftFoot
				{
					OFFSET -0.524474 -53.427422 -12.948200
					CHANNELS 3 Xrotation Yrotation Zrotation
					JOINT LeftToeBase
					{
						OFFSET 0.192200 -14.009700 16.364100
						CHANNELS 3 Xrotation Yrotation Zrotation
						JOINT LeftToe_End
						{
							OFFSET -1.784700 -0.561700 9.474800
							CHANNELS 3 Xrotation Yrotation Zrotation
							End Site
							{
								OFFSET 0 0 0
							}
						}
					}
				}
			}
		}
	}
	JOINT RightUpLeg_virtual
	{
		OFFSET 0.000000 0.000000 0.000000
		CHANNELS 3 Xrotation Yrotation Zrotation
		JOINT RightUpLeg
		{
			OFFSET -12.883000 -6.336304 -1.092800
			CHANNELS 3 Xrotation Yrotation Zrotation
			JOINT RightLeg
			{
				OFFSET -0.524587 -46.096825 9.782800
				CHANNELS 3 Xrotation Yrotation Zrotation
				JOINT RightFoot
				{
					OFFSET 0.524587 -53.427383 -12.948300
					CHANNELS 3 Xrotation Yrotation Zrotation
					JOINT RightToeBase
					{
						OFFSET -0.192200 -14.009700 16.364100
						CHANNELS 3 Xrotation Yrotation Zrotation
						JOINT RightToe_End
						{
							OFFSET 1.784700 -0.561700 9.474800
							CHANNELS 3 Xrotation Yrotation Zrotation
							End Site
							{
								OFFSET 0 0 0
							}
						}
					}
				}
			}
		}
	}
	JOINT Spine_virtual
	{
		OFFSET 0.000000 0.000000 0.000000
		CHANNELS 3 Xrotation Yrotation Zrotation
		JOINT Spine
		{
			OFFSET 0.072000 7.257294 -0.789700
			CHANNELS 3 Xrotation Yrotation Zrotation
			JOINT Spine1
			{
				OFFSET 0.000000 12.508769 -0.658067
				CHANNELS 3 Xrotation Yrotation Zrotation
				JOINT Spine1_split
				{
					OFFSET 0.000000 12.508769 -0.658067
					CHANNELS 3 Xrotation Yrotation Zrotation
					JOINT Spine2
					{
						OFFSET 0.000000 12.508769 -0.658067
						CHANNELS 3 Xrotation Yrotation Zrotation
						JOINT Neck_virtual
						{
							OFFSET 0.000000 0.000000 0.000000
							CHANNELS 3 Xrotation Yrotation Zrotation
							JOINT Neck
							{
								OFFSET 0.000000 14.033295 7.520400
								CHANNELS 3 Xrotation Yrotation Zrotation
								JOINT Head
								{
									OFFSET 0.000000 8.198502 5.703100
									CHANNELS 3 Xrotation Yrotation Zrotation
									JOINT HeadTop_End
									{
										OFFSET 0.000000 17.760803 13.332701
										CHANNELS 3 Xrotation Yrotation Zrotation
										End Site
										{
											OFFSET 0 0 0
										}
									}
								}
							}
						}
						JOINT LeftShoulder_virtual
						{
							OFFSET 0.000000 0.000000 0.000000
							CHANNELS 3 Xrotation Yrotation Zrotation
							JOINT LeftShoulder
							{
								OFFSET 6.292450 5.785301 -0.669000
								CHANNELS 3 Xrotation Yrotation Zrotation
								JOINT LeftShoulder_split
								{
									OFFSET 6.292450 5.785301 -0.669000
									CHANNELS 3 Xrotation Yrotation Zrotation
									JOINT LeftArm
									{
										OFFSET 13.907140 -6.093903 1.965100
										CHANNELS 3 Xrotation Yrotation Zrotation
										JOINT LeftForeArm
										{
											OFFSET 34.140198 0.000000 0.000000
											CHANNELS 3 Xrotation Yrotation Zrotation
											JOINT LeftHand
											{
												OFFSET 40.960209 0.000000 0.000000
												CHANNELS 3 Xrotation Yrotation Zrotation
												End Site
												{
													OFFSET 0 0 0
												}
											}
										}
									}
								}
							}
						}
						JOINT RightShoulder_virtual
						{
							OFFSET 0.000000 0.000000 0.000000
							CHANNELS 3 Xrotation Yrotation Zrotation
							JOINT RightShoulder
							{
								OFFSET -6.292450 5.785301 -0.669000
								CHANNELS 3 Xrotation Yrotation Zrotation
								JOINT RightShoulder_split
								{
									OFFSET -6.292450 5.785301 -0.669000
									CHANNELS 3 Xrotation Yrotation Zrotation
									JOINT RightArm
									{
										OFFSET -13.907140 -6.093903 1.965100
										CHANNELS 3 Xrotation Yrotation Zrotation
										JOINT RightForeArm
										{
											OFFSET -34.140198 0.000000 0.000000
											CHANNELS 3 Xrotation Yrotation Zrotation
											JOINT RightHand
											{
												OFFSET -40.960209 0.000000 0.000000
												CHANNELS 3 Xrotation Yrotation Zrotation
												End Site
												{
													OFFSET 0 0 0
												}
											}
										}
									}
								}
							}
						}
					}
				}
			}
		}
	}
}
MOTION
Frames: 10
Frame Time: 0.03333333
-8.719960 104.508842 4.070435 0.000000 0.000000 0.000000 -19.652020 -66.529663 -19.830396 -34.615665 0.435677 25.881588 40.503223 10.399894 -6.569196 2.255442 2.352457 -12.168310 0.772405 1.894960 0.481239 0.000000 0.000000 0.000000 -19.859601 -59.626541 -16.770903 -20.917021 -21.767540 -20.558420 36.804580 -10.784880 1.341610 -8.592649 -2.555804 12.500612 -8.634122 -3.631336 6.772877 0.000000 0.000000 0.000000 -28.582547 -62.716641 -24.223420 6.466810 13.372628 3.829949 3.157186 2.491114 1.494328 0.154665 3.945603 0.518935 0.000000 0.000000 0.000000 13.884107 5.513775 -2.003353 12.037703 7.255691 -2.978670 25.713101 44.138568 -14.459036 0.000000 0.000000 0.000000 14.167017 4.872653 -1.673816 9.969009 -11.153397 -6.675976 -2.093338 -14.909082 -4.542943 2.862880 -12.290644 -36.299194 -86.747466 8.006824 -79.526816 0.000000 0.000000 0.000000 14.331791 6.184893 0.000623 3.467714 5.855225 -10.592221 -1.416202 -3.206639 -11.436082 -10.953095 31.881619 41.380718 -67.104273 74.448857 55.818741 0.000000 0.000000 0.000000 
-8.752098 104.493744 6.093838 0.000000 0.000000 0.000000 -19.462556 -66.544580 -19.582033 -34.511679 1.430825 26.247594 40.787626 9.976445 -6.589513 1.489471 2.272123 -12.054941 0.329018 1.763503 0.893311 0.000000 0.000000 0.000000 -19.044111 -59.987646 -16.160781 -21.434314 -21.024033 -20.254400 37.502137 -10.685279 1.013536 -8.283984 -3.464345 12.337166 -8.081225 -3.724860 7.158898 0.000000 0.000000 0.000000 -26.854415 -62.818739 -22.995386 6.588921 13.222559 3.768949 3.654471 2.747904 1.580620 -0.037486 5.127044 0.405763 0.000000 0.000000 0.000000 13.983714 5.858952 -2.014212 11.761779 7.226036 -2.729293 25.092389 44.690546 -14.947034 0.000000 0.000000 0.000000 14.566867 5.222901 -1.781431 10.170831 -10.990563 -6.086646 -3.706024 -12.537826 -5.890904 1.463926 -10.415522 -37.274118 -86.599716 8.641479 -79.153109 0.000000 0.000000 0.000000 15.036916 6.623121 -0.074188 3.276441 7.754239 -11.003222 -2.092647 -1.915822 -11.201567 -10.597745 33.280582 42.018774 -69.603330 74.773359 58.185576 0.000000 0.000000 0.000000 
-8.306361 104.221695 8.329823 0.000000 0.000000 0.000000 -18.578704 -65.486775 -18.506659 -35.351259 3.046997 26.076727 41.861663 9.124091 -6.721865 -0.634315 2.628167 -10.993819 -0.368164 1.614211 1.420223 0.000000 0.000000 0.000000 -17.573880 -59.385770 -14.808036 -22.322617 -19.781018 -19.489352 38.592929 -9.943963 0.415692 -7.804636 -4.703239 12.427822 -7.458433 -3.605861 7.191538 0.000000 0.000000 0.000000 -23.909547 -62.611791 -20.478459 6.902053 13.101000 4.133038 3.735689 3.852068 1.470657 -0.331366 5.850024 0.434595 0.000000 0.000000 0.000000 14.068546 6.971540 -2.202593 10.651006 7.558450 -2.902341 23.917115 45.638057 -16.171661 0.000000 0.000000 0.000000 14.518744 6.456197 -2.057573 10.239009 -11.002857 -5.096776 -4.449891 -10.519895 -6.717871 -1.454208 -7.605895 -39.275084 -87.126467 8.920763 -79.530538 0.000000 0.000000 0.000000 15.662529 7.869777 -0.432065 3.386697 10.562757 -10.921865 -2.640005 -2.022774 -12.184533 -8.875222 35.181044 41.944946 -71.896538 74.759890 60.317967 0.000000 0.000000 0.000000 
-7.645953 103.853676 10.317150 0.000000 0.000000 0.000000 -17.112489 -63.661529 -16.803114 -36.737815 4.829404 25.200080 43.413697 7.868786 -6.769552 -3.290758 3.191912 -9.366407 -1.079981 1.450373 1.879060 0.000000 0.000000 0.000000 -15.923346 -58.149567 -13.169661 -23.706330 -18.127717 -18.352162 40.033781 -8.536171 -0.422628 -7.125442 -5.928857 13.081965 -7.013105 -3.284114 6.805385 0.000000 0.000000 0.000000 -20.228847 -62.067800 -17.202624 7.176255 12.934655 4.812929 3.421260 5.479508 1.285891 -0.476914 5.606151 0.288234 0.000000 0.000000 0.000000 14.195257 8.577900 -2.468066 8.938529 8.290805 -3.217105 22.583974 46.644393 -17.920647 0.000000 0.000000 0.000000 14.253968 8.245509 -2.453772 10.232620 -11.402510 -3.814913 -4.166976 -9.065895 -7.258998 -5.656366 -4.982314 -41.941425 -87.543703 8.930949 -80.007046 0.000000 0.000000 0.000000 16.173922 9.626240 -0.995318 3.736113 13.636648 -10.365110 -3.228605 -3.859673 -13.097853 -6.611295 36.724875 41.545923 -74.840985 74.512590 63.079488 0.000000 0.000000 0.000000 
-6.815397 103.263008 12.152634 0.000000 0.000000 0.000000 -15.300206 -61.321753 -14.739984 -38.266357 6.386802 23.765218 44.951821 6.285273 -6.566923 -5.415269 3.693593 -7.738911 -1.703903 1.270728 2.163443 0.000000 0.000000 0.000000 -14.253860 -56.376634 -11.424019 -25.191510 -16.140398 -16.839534 41.485060 -6.585890 -1.543711 -6.845828 -6.939581 14.080949 -6.899302 -2.807239 6.011694 0.000000 0.000000 0.000000 -16.443264 -61.133526 -13.832323 7.362211 12.599843 5.516580 2.810998 7.287388 1.117763 -0.702443 4.850756 0.542983 0.000000 0.000000 0.000000 14.339135 10.372488 -2.712937 6.751424 9.349208 -3.257788 21.520637 47.610810 -19.902860 0.000000 0.000000 0.000000 13.994302 10.202218 -2.923911 10.230408 -12.095793 -2.493931 -3.365760 -7.879378 -7.215366 -10.677500 -3.265142 -44.584736 -87.256937 8.899827 -79.994534 0.000000 0.000000 0.000000 16.470670 11.543453 -1.625686 4.209770 16.584097 -9.648513 -3.766038 -6.052744 -13.493172 -4.832700 37.576272 41.501913 -79.228480 74.116855 67.292185 0.000000 0.000000 0.000000 
-5.979111 102.722061 13.742294 0.000000 0.000000 0.000000 -13.145124 -58.604642 -12.420937 -39.559189 7.506423 21.876141 45.837919 4.584197 -6.016066 -6.337253 3.977100 -6.392439 -1.895023 1.065167 2.215462 0.000000 0.000000 0.000000 -12.394658 -54.213998 -9.568551 -26.076819 -13.938826 -14.972577 42.676111 -4.313728 -2.835569 -7.597102 -7.567029 14.860393 -6.831551 -2.228458 4.975297 0.000000 0.000000 0.000000 -13.059711 -60.083931 -10.986007 7.498300 12.023233 5.963546 1.987100 9.029037 1.041048 -0.769907 3.899896 0.815702 0.000000 0.000000 0.000000 14.356322 12.095762 -2.918160 4.359408 10.708890 -2.757954 21.066617 48.676395 -21.716745 0.000000 0.000000 0.000000 13.888717 11.986834 -3.416829 10.270145 -12.843057 -1.316104 -2.316528 -6.837539 -6.990476 -15.809765 -2.957338 -46.735826 -86.175944 8.952782 -79.432860 0.000000 0.000000 0.000000 16.600758 13.340463 -2.245465 4.721602 18.970435 -9.015970 -3.904700 -7.566449 -13.680675 -4.569407 37.663709 42.556627 -84.456081 73.558795 72.408119 0.000000 0.000000 0.000000 
-5.168150 102.328629 15.528423 0.000000 0.000000 0.000000 -10.939595 -55.616393 -10.069979 -40.387479 8.034929 19.810194 45.689519 2.785185 -5.130432 -6.099281 3.793611 -5.407216 -1.625619 0.831179 2.090206 0.000000 0.000000 0.000000 -10.529776 -51.797542 -7.719254 -26.197710 -11.662790 -12.869395 43.796600 -1.956541 -4.047717 -9.105476 -7.723984 14.942970 -6.489180 -1.594391 3.937530 0.000000 0.000000 0.000000 -10.111878 -58.988608 -8.759666 7.632967 11.289071 6.010977 1.087902 10.576633 1.060026 -0.667866 3.326090 1.044512 0.000000 0.000000 0.000000 14.157638 13.650869 -3.080561 2.117557 12.370559 -1.712724 20.866788 49.758679 -22.685089 0.000000 0.000000 0.000000 14.031236 13.489453 -3.889741 10.289412 -13.414921 -0.411739 -1.071812 -5.631930 -7.046917 -20.346432 -3.899116 -48.395824 -84.631665 9.065320 -78.767490 0.000000 0.000000 0.000000 16.547773 14.913023 -2.805158 5.151368 20.747671 -8.685813 -3.770920 -8.490249 -13.447637 -5.742294 37.243232 44.876826 -89.305639 72.950409 77.281562 0.000000 0.000000 0.000000 
-4.417454 102.048431 17.423412 0.000000 0.000000 0.000000 -8.870570 -52.418488 -7.893631 -40.640756 7.740235 17.822045 44.678760 0.949162 -3.993516 -5.319541 2.976238 -4.560373 -0.869687 0.582563 1.826077 0.000000 0.000000 0.000000 -8.805427 -49.055074 -5.957725 -25.677534 -9.539107 -10.634610 45.216173 0.323317 -4.970928 -10.728671 -7.388380 14.354894 -5.823621 -0.976635 3.117514 0.000000 0.000000 0.000000 -7.757587 -57.830255 -7.114873 7.929161 10.515781 5.623966 0.251269 11.928676 1.114652 -0.840369 3.434107 1.029994 0.000000 0.000000 0.000000 13.742417 15.032235 -3.186406 0.371478 14.071601 -0.317214 20.609059 51.079604 -22.497221 0.000000 0.000000 0.000000 14.326059 14.750186 -4.276632 10.223215 -13.564141 0.195624 -0.475745 -4.320445 -7.183653 -23.405725 -5.589462 -49.568906 -83.267984 9.257983 -78.580657 0.000000 0.000000 0.000000 16.417620 16.289480 -3.219386 5.486199 21.870785 -8.696757 -3.857450 -8.717123 -13.172807 -7.496808 36.688388 47.913128 -93.306641 72.529512 81.488351 0.000000 0.000000 0.000000 
-3.838603 101.808792 19.314316 0.000000 0.000000 0.000000 -7.225538 -48.935819 -6.131582 -40.250124 6.382931 15.827881 43.418112 -0.766178 -2.703487 -4.680816 1.546064 -3.661855 0.147733 0.352453 1.496616 0.000000 0.000000 0.000000 -7.293379 -46.080616 -4.404021 -24.673056 -7.895525 -8.376140 46.625989 2.457596 -5.575148 -12.115086 -6.520413 13.332047 -5.045583 -0.457581 2.677046 0.000000 0.000000 0.000000 -5.979545 -56.475491 -5.831413 8.448022 9.848373 4.967310 -0.455345 13.152874 1.177772 -0.820240 3.897351 0.487801 0.000000 0.000000 0.000000 13.169571 16.303330 -3.275041 -0.544368 15.489587 1.214092 19.846189 52.503545 -20.930111 0.000000 0.000000 0.000000 14.574901 15.909466 -4.522997 10.030438 -13.460428 0.445439 -0.683099 -3.230898 -7.133296 -24.922529 -7.416452 -50.288706 -82.265435 9.526113 -78.983686 0.000000 0.000000 0.000000 16.405358 17.530755 -3.546593 5.723678 22.231532 -8.921599 -4.515489 -8.166826 -12.903026 -8.769259 36.100336 50.905738 -96.829242 72.494398 85.438365 0.000000 0.000000 0.000000 
-3.365102 101.594879 20.865223 0.000000 0.000000 0.000000 -5.985677 -45.228276 -4.847481 -39.379924 4.016477 13.689875 42.655914 -2.273964 -1.287061 -4.489190 -0.309615 -2.757274 0.677113 0.156952 1.252356 0.000000 0.000000 0.000000 -6.366123 -42.857463 -3.309416 -23.105635 -6.792639 -6.009577 47.467513 4.295531 -5.932578 -13.582796 -5.333515 11.712753 -4.382030 -0.050091 2.636961 0.000000 0.000000 0.000000 -4.746216 -54.708821 -4.742958 9.117625 9.389817 4.301997 -1.056682 14.333082 1.240884 -0.632213 4.476463 0.028172 0.000000 0.000000 0.000000 12.670804 17.571754 -3.405699 -0.614883 16.423050 2.676679 17.899581 53.347097 -17.809175 0.000000 0.000000 0.000000 14.668653 17.102818 -4.627661 9.689604 -13.281331 0.197194 -1.022420 -2.852724 -6.612388 -25.623190 -8.461337 -50.857824 -81.301640 10.035817 -79.561855 0.000000 0.000000 0.000000 16.512249 18.745391 -3.818011 5.780621 22.028272 -9.198451 -5.393773 -6.695224 -12.409475 -8.719376 35.734648 53.169802 -101.160559 72.819966 90.361401 0.000000 0.000000 0.000000 
